<svg version="1.1" id="Layer_1" xmlns="http://www.w3.org/2000/svg" xmlns:xlink="http://www.w3.org/1999/xlink" x="0px" y="0px"
	 height="100%" viewBox="0 50 500 500" enable-background="new 0 0 500 500" xml:space="preserve">
<path fill="#FFD502" opacity="1.000000" stroke="#000000" stroke-width="5"
	d="
M109.080498,252.682587 
	C115.102020,245.144028 120.861382,237.374359 127.233856,230.145157 
	C131.757797,225.013016 137.122406,220.624023 142.077621,215.867752 
	C142.873581,215.103729 143.490448,214.153107 144.208984,213.265396 
	C134.792419,207.275009 130.782104,197.603287 132.817184,186.694214 
	C133.387726,183.635864 133.568909,180.492584 133.759033,177.377899 
	C134.296967,168.564362 137.572403,160.624512 142.008209,153.231339 
	C144.856659,148.483795 148.189301,143.845764 152.103531,139.963959 
	C157.130951,134.978180 163.985718,135.787552 170.367142,136.380249 
	C179.330933,137.212753 186.875000,141.246887 192.741516,148.025436 
	C194.499023,150.056152 195.256927,152.928192 196.609924,155.337799 
	C199.340179,160.200226 202.293457,164.942001 204.888626,169.873596 
	C205.979141,171.945862 206.394333,174.373489 207.369385,177.432968 
	C211.771118,176.246048 217.158142,175.720825 221.597168,173.390091 
	C229.216644,169.389465 237.533005,168.771011 245.580231,167.444916 
	C258.716370,165.280289 272.044128,163.954620 285.343048,163.231445 
	C292.504761,162.841995 299.780579,164.384811 306.993103,165.165390 
	C310.761841,165.573288 314.494171,166.313812 318.261688,166.737381 
	C327.826172,167.812683 336.882202,170.887161 346.140656,173.186996 
	C356.499603,175.760239 365.754578,180.400772 375.121735,184.761398 
	C382.535736,188.212799 388.934845,193.865570 395.732330,198.615616 
	C409.791840,208.440369 421.056549,221.049377 429.939392,235.508453 
	C439.179413,250.548813 445.318634,267.045593 447.831909,284.609344 
	C448.903473,292.097717 449.328033,299.790771 448.944489,307.334747 
	C448.700348,312.136810 451.553345,313.886536 454.184387,316.523651 
	C457.165924,319.512024 460.060242,322.704254 462.369110,326.217499 
	C465.267609,330.627960 467.885162,335.300537 469.997437,340.133789 
	C474.195435,349.739594 476.933746,359.853668 474.448395,370.306213 
	C472.902466,376.807739 469.451996,382.832642 467.506073,389.267914 
	C463.962219,400.987762 454.621796,405.880249 444.385040,409.840881 
	C436.405334,412.928223 428.152649,415.143219 419.556732,415.201721 
	C412.722778,415.248199 405.886688,414.584229 399.047424,414.360931 
	C392.478851,414.146454 385.902588,414.164612 379.334198,413.946259 
	C374.039062,413.770203 368.725220,413.630402 363.463623,413.065308 
	C341.800354,410.738556 320.139679,411.187988 298.453033,412.631561 
	C293.290680,412.975189 288.068695,412.433868 282.908417,412.792725 
	C279.757568,413.011871 276.704620,414.491852 273.547455,414.812805 
	C270.798065,415.092316 267.960815,414.359436 265.168518,414.410248 
	C262.681244,414.455505 260.209167,415.047668 257.718201,415.245056 
	C253.448669,415.583374 249.162720,415.721497 244.896057,416.087891 
	C236.367188,416.820251 227.602356,416.672821 219.394089,418.725037 
	C211.757843,420.634247 204.754166,425.014404 197.400940,428.139496 
	C193.686234,429.718231 189.830978,430.975311 186.010391,432.294189 
	C170.918533,437.503876 169.452438,457.999725 178.448486,465.532166 
	C181.947647,468.462036 185.784195,470.992432 189.504715,473.652130 
	C190.430344,474.313904 191.502274,474.770996 193.108139,475.651947 
	C186.475891,480.504578 180.990021,479.266174 175.427185,477.381073 
	C173.300949,476.660553 170.928009,476.452606 169.015152,475.386963 
	C167.529633,474.559418 166.511276,472.818665 165.412689,471.386108 
	C162.863663,468.062103 159.195175,465.027039 158.099091,461.258606 
	C153.744461,446.287109 157.801285,429.337036 173.632904,420.276825 
	C176.491928,418.640656 178.789703,415.840637 181.773956,414.641907 
	C189.727676,411.446960 197.939713,408.900848 205.990906,405.938751 
	C208.052124,405.180359 209.802994,403.178650 211.859772,402.882477 
	C218.215240,401.967316 224.650177,401.606476 231.052963,401.016144 
	C233.833847,400.759766 236.607376,400.413239 239.391434,400.202789 
	C250.733093,399.345490 262.078308,398.535797 273.420654,397.687164 
	C280.850311,397.131317 288.268494,396.314301 295.707794,396.024719 
	C303.444244,395.723572 311.201691,395.799866 318.946655,395.922150 
	C328.904968,396.079315 338.871368,396.240326 348.812836,396.788361 
	C356.856659,397.231750 364.854645,398.500183 372.898285,398.953644 
	C384.533600,399.609619 396.220581,400.536865 407.830017,400.043335 
	C415.446106,399.719604 423.730499,402.284912 430.754547,396.900940 
	C431.202728,396.557434 431.998718,396.515320 432.613831,396.565765 
	C437.971436,397.005005 442.735504,393.756866 445.147430,388.996368 
	C446.189636,386.939362 449.570892,386.010406 450.471619,383.949341 
	C453.311981,377.450104 455.574005,370.688995 457.852997,363.959198 
	C458.531250,361.956238 458.532745,359.723236 458.836548,357.594513 
	C459.819702,350.705536 456.062500,345.530273 452.411194,340.413208 
	C450.738342,338.068817 448.511505,336.119720 446.092346,333.513519 
	C445.079193,337.252411 444.131470,340.373077 443.393982,343.542633 
	C441.252747,352.745056 434.334106,360.068420 425.257904,360.704346 
	C419.673889,361.095551 413.703979,360.015900 408.370667,358.220428 
	C405.757141,357.340576 404.373871,357.258148 402.279602,358.584320 
	C399.208740,360.529053 395.966339,362.202911 392.392639,363.706787 
	C390.354126,362.286255 388.835724,360.420654 387.066223,360.140381 
	C378.697052,358.814819 370.211456,358.206116 361.859253,356.797028 
	C353.292786,355.351807 345.080872,355.967987 337.034119,359.160736 
	C330.762695,359.478149 324.489136,359.759949 318.221313,360.137543 
	C316.608429,360.234650 315.013824,360.855316 313.410583,360.856232 
	C305.204956,360.860962 298.112366,364.048431 290.749359,367.347656 
	C285.591583,369.658783 279.262451,369.642883 273.414093,370.036011 
	C268.615570,370.358521 263.754608,369.752075 258.576233,369.181335 
	C256.609192,367.263123 255.244690,365.087860 253.314789,364.303223 
	C248.446594,362.324036 243.287659,361.074768 238.312225,359.340790 
	C232.256592,357.230408 226.269531,354.923309 220.252808,352.701324 
	C210.820862,345.481079 199.848389,342.475952 188.309311,340.996063 
	C178.071884,339.683136 167.998825,340.691498 157.936966,342.746216 
	C150.976212,344.167603 143.923050,345.136505 136.131195,346.317993 
	C134.126648,345.887787 132.832489,345.580963 131.688644,344.985443 
	C123.131790,340.530426 114.604637,336.018372 106.108185,331.240173 
	C106.125565,330.574524 106.102928,330.192871 106.494652,329.820374 
	C115.366722,331.207947 123.844460,332.475525 132.276413,333.996796 
	C140.335114,335.450714 148.346191,337.168610 156.378204,338.770447 
	C156.552185,338.024963 156.726181,337.279480 156.900162,336.533997 
	C152.948288,335.076141 149.106094,332.978973 145.024246,332.278595 
	C132.050964,330.052643 118.988373,328.347168 105.922607,326.028564 
	C105.010521,316.210266 91.485939,308.747803 83.445305,313.235107 
	C87.600098,300.812744 91.730049,288.381958 95.942268,275.979095 
	C96.448486,274.488556 97.400925,273.149597 98.561676,271.311707 
	C103.307121,266.558716 107.942787,262.487396 111.830521,257.796295 
	C113.601120,255.659775 111.737823,253.488907 109.080498,252.682587 
M228.005692,232.190872 
	C233.911957,236.463913 239.768478,240.808044 245.739975,244.987900 
	C250.666489,248.436310 255.528473,251.742477 257.127899,258.172302 
	C258.142731,262.252045 261.851776,261.776917 264.479309,260.697266 
	C269.303223,258.715027 273.847931,256.027527 278.434174,253.498306 
	C286.863281,248.849808 290.947693,240.316620 295.875732,232.804062 
	C302.019745,223.437897 299.153412,213.393921 295.658356,203.718002 
	C295.396149,202.992203 294.727570,202.249390 294.049347,201.862793 
	C286.506775,197.562988 278.029724,194.783539 269.737183,195.928116 
	C260.830200,197.157486 252.141861,200.791077 243.710358,204.237350 
	C240.381165,205.598129 238.285324,209.704147 235.134659,211.828705 
	C227.831512,216.753372 225.673370,223.360580 228.005692,232.190872 
M166.891830,151.301895 
	C154.045853,150.236755 147.537399,154.597092 143.796524,164.117325 
	C141.599899,169.707565 140.311844,175.987289 140.206284,181.984894 
	C140.065491,189.984634 140.003143,198.330002 145.162064,205.377197 
	C146.921921,207.781204 148.820160,209.054337 151.892792,207.362518 
	C158.432419,203.761719 165.051041,200.302994 171.665756,196.840424 
	C178.459991,193.283890 185.352585,189.907791 192.048477,186.176941 
	C193.429092,185.407700 195.285202,183.019028 194.951981,182.064560 
	C193.298660,177.328735 191.192398,172.712128 188.814499,168.285141 
	C187.684097,166.180679 185.253372,164.798157 184.000458,162.731613 
	C180.215546,156.488754 174.647827,153.056641 166.891830,151.301895 
M327.792633,331.705933 
	C330.988037,337.536285 337.074219,339.168701 343.012054,342.960052 
	C342.426910,341.041901 342.280609,340.269470 341.964569,339.574249 
	C340.057251,335.378967 337.015991,331.355988 336.399017,326.986603 
	C334.982544,316.955536 334.103455,306.750763 334.227661,296.631439 
	C334.324402,288.750031 335.942719,280.600433 341.931946,274.694763 
	C346.586456,270.105194 352.082520,266.378510 357.053009,262.092590 
	C358.143646,261.152161 358.592499,259.467407 359.336914,258.125427 
	C357.744598,258.148773 355.963715,257.717041 354.596466,258.283569 
	C350.969391,259.786530 347.641357,262.046295 343.971771,263.403076 
	C339.090179,265.208008 335.719086,268.218689 332.723480,272.534760 
	C327.749878,279.700745 324.001740,286.974518 322.345032,295.762604 
	C319.975586,308.331329 322.251587,319.816345 327.792633,331.705933 
M174.057892,282.616791 
	C171.177368,277.793579 164.682678,274.770752 161.299332,276.678558 
	C156.647537,279.301636 153.207428,289.101898 155.432205,293.393036 
	C158.009827,298.364777 165.934006,300.883392 170.802444,298.278290 
	C176.213272,295.382965 177.705490,289.305786 174.057892,282.616791 
z"/>
<path fill="#8B767A" opacity="1.000000" stroke="#000000" stroke-width="5"
	d="
M336.943726,359.484375 
	C345.080872,355.967987 353.292786,355.351807 361.859253,356.797028 
	C370.211456,358.206116 378.697052,358.814819 387.066223,360.140381 
	C388.835724,360.420654 390.354126,362.286255 392.056580,363.802002 
	C389.254883,366.048798 386.104370,367.599304 383.573608,369.847473 
	C378.432831,374.414093 373.740540,379.484528 368.618011,384.073364 
	C366.961731,385.557129 364.538666,386.184967 362.466370,387.204315 
	C362.039734,385.303711 361.071869,383.334137 361.303497,381.517456 
	C361.733704,378.143799 362.863831,374.859375 364.120544,369.882172 
	C358.307068,373.546051 353.657410,376.443390 349.045135,379.399017 
	C347.100220,380.645294 345.354370,382.275513 343.286407,383.228668 
	C342.073212,383.787842 340.404236,383.358215 338.940277,383.373352 
	C338.987366,381.885284 338.519257,380.096832 339.178650,378.965729 
	C341.117065,375.640656 343.503082,372.576569 346.630768,368.097015 
	C340.799469,370.293915 335.869476,371.535675 331.602264,373.949249 
	C328.048248,375.959473 325.845673,375.804260 323.328125,372.076324 
	C327.821716,368.000305 332.337524,363.904144 336.943726,359.484375 
z"/>
<path fill="#8B767A" opacity="1.000000" stroke="#000000" stroke-width="5"
	d="
M219.805756,352.835999 
	C226.269531,354.923309 232.256592,357.230408 238.312225,359.340790 
	C243.287659,361.074768 248.446594,362.324036 253.314789,364.303223 
	C255.244690,365.087860 256.609192,367.263123 258.227173,369.166962 
	C255.158295,370.151764 252.117371,371.112640 249.023773,371.332428 
	C240.847092,371.913422 233.868347,375.513428 226.989349,379.474487 
	C225.715363,380.208069 224.591339,381.371460 223.234573,381.749268 
	C221.532547,382.223267 219.661957,382.091766 217.864136,382.221588 
	C218.265610,380.087006 218.169373,377.665802 219.192444,375.889160 
	C220.521255,373.581635 222.740387,371.786774 224.346130,368.734924 
	C218.180450,370.518616 212.013763,372.298920 205.849716,374.088287 
	C204.158813,374.579132 202.503616,375.333527 200.781357,375.536072 
	C199.064514,375.738007 197.284073,375.399200 195.531494,375.297485 
	C196.612335,373.077454 197.388855,370.621796 198.868683,368.710754 
	C200.090012,367.133575 202.143478,366.200836 203.828217,364.982513 
	C203.732819,364.437775 203.637405,363.893036 203.542007,363.348267 
	C200.285446,363.185516 196.990631,362.638000 193.781967,362.957031 
	C189.738159,363.359070 187.838684,361.104797 185.410538,357.630096 
	C196.895096,354.364716 207.822891,351.721619 219.805756,352.835999 
z"/>
<path fill="#8A7578" opacity="1.000000" stroke="#000000" stroke-width="5"
	d="
M106.080299,329.811249 
	C106.102928,330.192871 106.125565,330.574524 106.006752,331.577759 
	C105.561409,333.295166 105.257507,334.390991 104.627670,335.553711 
	C103.529457,336.359344 102.757172,337.098083 101.650452,337.895355 
	C100.805717,338.620453 100.295410,339.287018 99.404678,339.980469 
	C97.329681,340.315277 95.635109,340.623199 93.940536,340.931091 
	C88.042793,340.716064 81.847549,341.526825 77.154640,336.726776 
	C75.589767,335.126190 74.397079,333.161682 72.958611,330.667053 
	C72.937729,328.870911 72.992493,327.771301 73.047256,326.671692 
	C73.064445,326.003387 73.081635,325.335052 73.345825,323.940247 
	C74.386414,322.164703 75.179993,321.115662 75.973572,320.066650 
	C76.645432,319.245850 77.317299,318.425049 78.339569,317.243469 
	C79.442924,316.288635 80.195877,315.694611 80.948822,315.100586 
	C81.665024,314.600006 82.381210,314.099457 83.271355,313.416992 
	C91.485939,308.747803 105.010521,316.210266 105.930832,326.365143 
	C106.011261,328.012878 106.045784,328.912048 106.080299,329.811249 
z"/>
<path fill="#504C4D" opacity="1.000000" stroke="#000000" stroke-width="3"
	d="
M80.648254,314.934998 
	C80.195877,315.694611 79.442924,316.288635 78.388077,316.921204 
	C69.292053,312.075714 60.546768,307.100555 51.681908,302.348511 
	C47.626995,300.174866 43.321056,298.473083 39.162491,296.487122 
	C37.904831,295.886505 36.759670,295.050293 35.288597,294.154999 
	C40.684441,291.460693 65.718719,303.243317 80.648254,314.934998 
z"/>
<path fill="#4E4A4B" opacity="1.000000" stroke="#000000" stroke-width="3"
	d="
M75.595200,319.969299 
	C75.179993,321.115662 74.386414,322.164703 73.355652,323.430786 
	C63.387375,321.327087 53.646610,319.045776 43.930500,316.663879 
	C40.592018,315.845459 37.315128,314.775787 33.825397,313.767548 
	C34.234417,309.828308 36.772697,309.604614 39.448799,310.274536 
	C47.487831,312.286987 55.483837,314.472321 63.488815,316.619324 
	C67.407089,317.670227 71.308037,318.785706 75.595200,319.969299 
z"/>
<path fill="#524F4F" opacity="1.000000" stroke="#000000" stroke-width="3"
	d="
M72.563705,326.660828 
	C72.992493,327.771301 72.937729,328.870911 72.954903,330.292542 
	C57.459820,330.855713 41.892807,331.096893 26.325792,331.338074 
	C26.199728,330.874512 26.073662,330.410950 25.947596,329.947388 
	C30.342922,329.034088 34.701237,327.660645 39.141300,327.303558 
	C48.309196,326.566254 57.518925,326.321686 66.715721,325.994720 
	C68.493858,325.931519 70.291504,326.417358 72.563705,326.660828 
z"/>
<path fill="#4F4A40" opacity="1.000000" stroke="#000000" stroke-width="3"
	d="
M104.953598,335.486816 
	C105.257507,334.390991 105.561409,333.295166 105.966743,331.861755 
	C114.604637,336.018372 123.131790,340.530426 131.688644,344.985443 
	C132.832489,345.580963 134.126648,345.887787 135.658295,346.445831 
	C138.939560,347.954254 142.386154,349.034790 140.381683,354.287018 
	C136.461594,352.140533 132.680969,350.070374 128.365005,347.586243 
	C120.204323,343.277069 112.578964,339.381958 104.953598,335.486816 
z"/>
<path fill="#504B48" opacity="1.000000" stroke="#000000" stroke-width="3"
	d="
M99.785103,339.953613 
	C100.295410,339.287018 100.805717,338.620453 101.992706,338.013367 
	C107.147736,341.732544 111.626076,345.392212 116.104431,349.051880 
	C121.628052,354.683838 127.196060,360.273468 132.638336,365.982971 
	C133.743439,367.142334 134.374435,368.753632 135.223999,370.156555 
	C134.761612,370.549652 134.299225,370.942749 133.836838,371.335815 
	C125.790955,363.651825 117.745071,355.967804 109.273605,347.793152 
	C105.827049,344.852844 102.806076,342.403229 99.785103,339.953613 
z"/>
<path fill="#2F2D29" opacity="1.000000" stroke="#000000" stroke-width="5"
	d="
M108.701492,252.739334 
	C111.737823,253.488907 113.601120,255.659775 111.830521,257.796295 
	C107.942787,262.487396 103.307121,266.558716 98.634140,270.938599 
	C95.468346,267.420166 97.464828,258.617279 101.810341,256.019043 
	C103.882591,254.780029 106.145790,253.860397 108.701492,252.739334 
z"/>
<path fill="#FFD502" opacity="1.000000" stroke="#000000" stroke-width="5"
	d="
M116.617287,349.041260 
	C111.626076,345.392212 107.147736,341.732544 102.327141,337.954834 
	C102.757172,337.098083 103.529457,336.359344 104.627670,335.553711 
	C112.578964,339.381958 120.204323,343.277069 128.047882,347.448181 
	C124.554108,348.159637 120.842125,348.595154 116.617287,349.041260 
z"/>
<path fill="#FFD502" opacity="1.000000" stroke="#000000" stroke-width="5"
	d="
M99.404678,339.980469 
	C102.806076,342.403229 105.827049,344.852844 109.003189,347.608887 
	C104.236397,345.770721 99.314438,343.626160 94.166504,341.206360 
	C95.635109,340.623199 97.329681,340.315277 99.404678,339.980469 
z"/>
<path fill="#E89A98" opacity="1.000000" stroke="#000000" stroke-width="3"
	d="
M227.741699,231.920227 
	C225.673370,223.360580 227.831512,216.753372 235.134659,211.828705 
	C238.285324,209.704147 240.381165,205.598129 243.710358,204.237350 
	C252.141861,200.791077 260.830200,197.157486 269.737183,195.928116 
	C278.029724,194.783539 286.506775,197.562988 294.049347,201.862793 
	C294.727570,202.249390 295.396149,202.992203 295.658356,203.718002 
	C299.153412,213.393921 302.019745,223.437897 295.875732,232.804062 
	C290.947693,240.316620 286.863281,248.849808 278.434174,253.498306 
	C273.847931,256.027527 269.303223,258.715027 264.479309,260.697266 
	C261.851776,261.776917 258.142731,262.252045 257.127899,258.172302 
	C255.528473,251.742477 250.666489,248.436310 245.739975,244.987900 
	C239.768478,240.808044 233.911957,236.463913 227.741699,231.920227 
z"/>
<path fill="#E89A98" opacity="1.000000" stroke="#000000" stroke-width="3"
	d="
M167.299149,151.406342 
	C174.647827,153.056641 180.215546,156.488754 184.000458,162.731613 
	C185.253372,164.798157 187.684097,166.180679 188.814499,168.285141 
	C191.192398,172.712128 193.298660,177.328735 194.951981,182.064560 
	C195.285202,183.019028 193.429092,185.407700 192.048477,186.176941 
	C185.352585,189.907791 178.459991,193.283890 171.665756,196.840424 
	C165.051041,200.302994 158.432419,203.761719 151.892792,207.362518 
	C148.820160,209.054337 146.921921,207.781204 145.162064,205.377197 
	C140.003143,198.330002 140.065491,189.984634 140.206284,181.984894 
	C140.311844,175.987289 141.599899,169.707565 143.796524,164.117325 
	C147.537399,154.597092 154.045853,150.236755 167.299149,151.406342 
z"/>
<path fill="#47433E" opacity="1.000000" stroke="#000000" stroke-width="3"
	d="
M327.563721,331.410431 
	C322.251587,319.816345 319.975586,308.331329 322.345032,295.762604 
	C324.001740,286.974518 327.749878,279.700745 332.723480,272.534760 
	C335.719086,268.218689 339.090179,265.208008 343.971771,263.403076 
	C347.641357,262.046295 350.969391,259.786530 354.596466,258.283569 
	C355.963715,257.717041 357.744598,258.148773 359.336914,258.125427 
	C358.592499,259.467407 358.143646,261.152161 357.053009,262.092590 
	C352.082520,266.378510 346.586456,270.105194 341.931946,274.694763 
	C335.942719,280.600433 334.324402,288.750031 334.227661,296.631439 
	C334.103455,306.750763 334.982544,316.955536 336.399017,326.986603 
	C337.015991,331.355988 340.057251,335.378967 341.964569,339.574249 
	C342.280609,340.269470 342.426910,341.041901 343.012054,342.960052 
	C337.074219,339.168701 330.988037,337.536285 327.563721,331.410431 
z"/>
<path fill="#292725" opacity="1.000000" stroke="none" 
	d="
M174.273071,282.942047 
	C177.705490,289.305786 176.213272,295.382965 170.802444,298.278290 
	C165.934006,300.883392 158.009827,298.364777 155.432205,293.393036 
	C153.207428,289.101898 156.647537,279.301636 161.299332,276.678558 
	C164.682678,274.770752 171.177368,277.793579 174.273071,282.942047 
z"/>
<path fill="#544E3B" opacity="1.000000" stroke="none" 
	d="
M106.494652,329.820374 
	C106.045784,328.912048 106.011261,328.012878 105.968521,326.777100 
	C118.988373,328.347168 132.050964,330.052643 145.024246,332.278595 
	C149.106094,332.978973 152.948288,335.076141 156.900162,336.533997 
	C156.726181,337.279480 156.552185,338.024963 156.378204,338.770447 
	C148.346191,337.168610 140.335114,335.450714 132.276413,333.996796 
	C123.844460,332.475525 115.366722,331.207947 106.494652,329.820374 
z"/>
</svg>